<svg width="2000" height="471" viewBox="0 0 2000 471" fill="none" xmlns="http://www.w3.org/2000/svg">
<g clip-path="url(#clip0_2_356)">
<path d="M929.276 104.717C929.276 89.5701 936.656 81.9965 951.416 81.9965H972.445C987.592 81.9965 995.166 89.5701 995.166 104.717V130.77C995.225 133.298 995.133 135.827 994.888 138.344C994.736 140.345 994.458 142.335 994.055 144.302C993.711 146.065 993.541 147.857 993.55 149.654H994.661C997.387 140.948 1001.19 132.62 1006 124.863C1011 116.604 1017.08 109.055 1024.1 102.42C1030.96 95.8766 1038.78 90.4197 1047.3 86.2377C1055.78 82.0958 1065.1 79.9785 1074.54 80.0527C1082.11 80.0527 1087.41 81.9208 1090.49 85.6823C1093.89 90.6774 1095.5 96.6731 1095.06 102.698V123.702C1095.06 138.849 1087.32 146.422 1071.84 146.422C1060.3 146.171 1048.93 149.162 1039.02 155.056C1029.68 160.807 1021.75 168.569 1015.79 177.777C1009.41 187.525 1004.67 198.253 1001.75 209.535C998.692 221.547 997.157 233.897 997.185 246.292V334.802C997.185 349.949 989.805 357.523 975.045 357.523H951.315C936.555 357.523 929.166 349.949 929.149 334.802L929.276 104.717Z" fill="#231F20"/>
<path d="M1147.8 104.717C1147.8 89.5699 1155.18 81.9963 1169.94 81.9963H1193.67C1208.45 81.9963 1215.83 89.5699 1215.83 104.717V334.65C1215.83 349.797 1208.45 357.371 1193.67 357.371H1169.94C1155.16 357.371 1147.78 349.797 1147.8 334.65V104.717Z" fill="#231F20"/>
<path d="M1306.49 414.526C1308.37 408.9 1312.32 404.204 1317.55 401.399C1323.33 399.437 1329.64 399.725 1335.22 402.207C1342.79 405.015 1350.54 407.326 1358.42 409.124C1369.05 411.447 1379.91 412.531 1390.78 412.355C1400.88 412.406 1410.95 411.245 1420.77 408.897C1429.76 406.786 1438.21 402.832 1445.59 397.284C1452.69 391.724 1458.42 384.607 1462.33 376.482C1466.75 366.699 1468.86 356.033 1468.51 345.304V320.059C1468.52 318.594 1468.71 317.136 1469.07 315.716C1469.09 314.088 1469.27 312.465 1469.6 310.869H1468.51C1461.44 323.393 1451.2 333.84 1438.82 341.164C1426.61 348.384 1411.31 351.985 1392.93 351.969C1374.51 352.348 1356.25 348.559 1339.51 340.886C1324.39 333.798 1311.03 323.453 1300.38 310.592C1289.57 297.439 1281.42 282.316 1276.37 266.059C1265.58 231.224 1265.44 193.956 1275.99 159.045C1280.84 143.15 1288.83 128.386 1299.47 115.623C1310.08 103.056 1323.35 93.0015 1338.32 86.1872C1355.31 78.6654 1373.75 74.9765 1392.32 75.3822C1405.95 74.9507 1419.52 77.2512 1432.24 82.148C1441.15 85.74 1449.52 90.5577 1457.1 96.462C1463.87 102.434 1469.54 109.553 1473.84 117.491H1474.9C1474.7 117.28 1474.55 117.029 1474.45 116.755C1474.36 116.481 1474.32 116.19 1474.34 115.901V100.173C1474.33 97.7372 1474.83 95.326 1475.81 93.0953C1476.79 90.8645 1478.23 88.8638 1480.02 87.2222C1484.59 83.3329 1490.5 81.3927 1496.48 81.8198H1514.71C1529.49 81.8198 1536.88 89.3933 1536.88 104.54V340.457C1536.88 364.187 1532.67 384.249 1524.25 400.641C1516.4 416.286 1505.19 430.008 1491.44 440.832C1477.79 451.349 1462.2 459.07 1445.57 463.552C1428.95 468.14 1411.79 470.475 1394.54 470.495C1379.5 470.548 1364.49 469.102 1349.73 466.178C1337.55 463.901 1325.62 460.426 1314.11 455.802C1300.45 450.046 1296.49 440.327 1302.25 426.644L1306.49 414.526ZM1406.36 294.182C1414.33 294.178 1422.25 292.9 1429.81 290.396C1437.67 287.819 1444.73 283.274 1450.34 277.192C1456.78 269.992 1461.65 261.533 1464.65 252.351C1468.56 239.877 1470.39 226.844 1470.05 213.776C1470.41 200.517 1468.58 187.289 1464.65 174.621C1461.69 165.449 1456.7 157.062 1450.06 150.083C1444.17 144.096 1436.83 139.745 1428.75 137.46C1420.41 135.081 1411.77 133.908 1403.1 133.976C1381.49 133.976 1365.13 140.91 1354 154.778C1342.88 168.646 1337.3 186.899 1337.26 209.535C1337.26 234.376 1343.15 254.707 1354.93 270.528C1366.72 286.348 1383.86 294.233 1406.36 294.182V294.182Z" fill="#231F20"/>
<path d="M1604.96 104.717C1604.96 89.5699 1612.34 81.9963 1627.1 81.9963H1650.81C1665.57 81.9963 1672.95 89.5699 1672.95 104.717V334.65C1672.95 349.797 1665.57 357.371 1650.81 357.371H1627.08C1612.3 357.371 1604.92 349.797 1604.94 334.65L1604.96 104.717Z" fill="#231F20"/>
<path d="M1740.91 104.717C1740.91 89.5699 1748.29 81.9963 1763.05 81.9963H1784.1C1798.85 81.9963 1806.23 89.5699 1806.24 104.717V121.455C1806.24 123.074 1806.15 124.692 1805.97 126.302C1805.77 127.555 1805.68 128.821 1805.69 130.088C1805.36 131.325 1805.18 132.596 1805.16 133.875H1806.24C1809.74 127.177 1813.89 120.843 1818.64 114.967C1824.43 107.812 1831.14 101.462 1838.61 96.0831C1847.24 89.9561 1856.69 85.062 1866.68 81.5419C1878.64 77.3747 1891.25 75.3576 1903.92 75.584C1934.5 75.584 1958.16 83.8645 1974.91 100.425C1991.65 116.986 2000.02 143.553 2000 180.124V334.474C2000 349.621 1992.43 357.194 1977.28 357.194H1954.05C1938.91 357.194 1931.33 349.621 1931.33 334.474V194.388C1931.33 177.558 1928.46 163.976 1922.72 153.642C1916.99 143.308 1905.43 138.175 1888.06 138.243C1876.74 138.042 1865.52 140.416 1855.24 145.185C1845.65 149.749 1837.18 156.368 1830.43 164.573C1823.41 173.166 1818 182.959 1814.47 193.479C1810.68 204.638 1808.78 216.354 1808.84 228.141V334.448C1808.84 349.595 1801.45 357.169 1786.68 357.169H1762.95C1748.19 357.169 1740.81 349.595 1740.81 334.448L1740.91 104.717Z" fill="#231F20"/>
<path d="M566.426 218.447C566.253 198.47 570.305 178.683 578.317 160.383C585.851 143.134 596.87 127.628 610.681 114.84C624.693 102.052 640.957 91.9771 658.647 85.1269C696.546 70.7621 738.391 70.7621 776.29 85.1269C794.077 91.9941 810.455 102.065 824.609 114.84C838.525 127.59 849.603 143.124 857.125 160.433C864.958 178.82 868.996 198.6 868.996 218.586C868.996 238.571 864.958 258.351 857.125 276.738C849.484 294.019 838.374 309.547 824.483 322.356C810.423 335.251 794.02 345.329 776.164 352.044C738.21 366.105 696.475 366.105 658.521 352.044C640.751 345.366 624.458 335.281 610.555 322.356C596.341 309.068 585.062 292.956 577.441 275.053C569.819 257.15 566.025 237.852 566.3 218.396L566.426 218.447ZM636.053 218.447C635.883 230.459 638.097 242.386 642.566 253.538C646.642 263.599 652.645 272.766 660.238 280.525C667.579 288.067 676.385 294.029 686.114 298.045C696.062 302.25 706.747 304.433 717.548 304.467C728.348 304.501 739.047 302.385 749.021 298.243C758.996 294.101 768.046 288.014 775.644 280.339C783.243 272.664 789.238 263.553 793.28 253.538C801.897 231.094 801.897 206.254 793.28 183.81C789.204 173.818 783.194 164.729 775.595 157.065C767.996 149.401 758.959 143.314 749.001 139.153C739.044 134.992 728.362 132.838 717.57 132.816C706.778 132.794 696.088 134.905 686.114 139.025C676.373 143.088 667.567 149.102 660.238 156.697C652.614 164.527 646.609 173.783 642.566 183.937C638.227 194.919 636.058 206.639 636.179 218.447H636.053Z" fill="#231F20"/>
<path d="M282.746 179.241C290.926 200.538 290.926 224.111 282.746 245.409V245.257C278.917 254.744 273.238 263.374 266.041 270.644C258.843 277.914 250.271 283.679 240.823 287.603C231.375 291.527 221.241 293.531 211.01 293.499C200.78 293.467 190.658 291.399 181.235 287.417C171.964 283.644 163.555 278.027 156.52 270.906C149.401 263.516 143.755 254.837 139.884 245.333C131.704 224.027 131.704 200.446 139.884 179.14C143.683 169.524 149.336 160.749 156.52 153.314C163.48 146.153 171.83 140.492 181.059 136.677C190.356 132.723 200.343 130.642 210.446 130.553C220.549 130.464 230.571 132.369 239.937 136.158C249.303 139.948 257.829 145.548 265.028 152.637C272.226 159.727 277.956 168.167 281.888 177.474C282.166 178.054 282.393 178.685 282.746 179.241Z" fill="#231F20"/>
<path d="M323.542 4.66728e-05H106.434C92.5539 -0.0997597 78.7904 2.53575 65.9293 7.75605C53.0682 12.9764 41.3615 20.6792 31.4778 30.4245C21.5941 40.1699 13.7271 51.7669 8.32603 64.5532C2.92501 77.3394 0.0958011 91.0645 0 104.944L0 319.251C0.213506 347.256 11.5351 374.032 31.4776 393.695C51.4201 413.358 78.3524 424.301 106.358 424.119H323.467C351.49 424.294 378.436 413.336 398.384 393.653C418.332 373.97 429.65 347.173 429.85 319.15V104.944C429.656 76.9346 418.351 50.1475 398.417 30.4694C378.483 10.7913 351.552 -0.167908 323.542 4.66728e-05V4.66728e-05ZM371.508 111.584C371.508 114.633 370.299 117.557 368.145 119.715C365.992 121.873 363.07 123.089 360.022 123.096H321.649C330.726 133.227 338.132 144.74 343.587 157.202C351.008 174.623 354.833 193.364 354.833 212.3C354.833 231.235 351.008 249.976 343.587 267.397C336.3 283.739 325.741 298.414 312.561 310.516C299.24 322.746 283.693 332.302 266.766 338.664C248.961 345.362 230.072 348.708 211.05 348.535L70.0807 347.399C67.0275 347.399 64.0995 346.186 61.9406 344.027C59.7817 341.869 58.5689 338.941 58.5689 335.887V311.576C58.5688 310.068 58.8671 308.575 59.4466 307.182C60.026 305.79 60.8752 304.526 61.9451 303.463C63.0151 302.4 64.2848 301.559 65.681 300.989C67.0772 300.419 68.5725 300.13 70.0807 300.14H99.9457C91.4692 290.258 84.463 279.205 79.1437 267.321C71.722 249.896 67.8965 231.151 67.8965 212.211C67.8965 193.271 71.722 174.526 79.1437 157.101C86.2653 140.726 96.7102 126.009 109.817 113.881C123.109 101.777 138.546 92.2649 155.334 85.8337C173.049 79.0114 191.89 75.5857 210.873 75.7356H359.82C361.33 75.7356 362.826 76.0336 364.221 76.6124C365.617 77.1912 366.884 78.0396 367.951 79.1089C369.018 80.1782 369.863 81.4474 370.439 82.844C371.015 84.2405 371.31 85.7369 371.306 87.2475L371.508 111.584Z" fill="#231F20"/>
</g>
<defs>
<clipPath id="clip0_2_356">
<rect width="2000" height="470.368" fill="white"/>
</clipPath>
</defs>
</svg>
